<?xml version="1.0" standalone="no"?><!DOCTYPE svg PUBLIC "-//W3C//DTD SVG 1.1//EN" "http://www.w3.org/Graphics/SVG/1.1/DTD/svg11.dtd"><svg width="100%" height="100%" viewBox="0 0 32 32" version="1.1" xmlns="http://www.w3.org/2000/svg" xmlns:xlink="http://www.w3.org/1999/xlink" xml:space="preserve" style="fill-rule:evenodd;clip-rule:evenodd;stroke-linejoin:round;stroke-miterlimit:1.41421;"><path d="M16,0c-8.835,0 -16,7.162 -16,16c0,7.068 4.579,13.072 10.938,15.188c0.8,0.147 1.094,-0.357 1.094,-0.781c0,-0.38 -0.023,-1.384 -0.031,-2.719c-4.451,0.967 -5.375,-2.156 -5.375,-2.156c-0.728,-1.848 -1.781,-2.313 -1.781,-2.313c-1.453,-0.993 0.125,-1 0.125,-1c1.606,0.113 2.438,1.656 2.438,1.656c1.427,2.445 3.745,1.754 4.656,1.344c0.145,-1.034 0.574,-1.756 1.031,-2.156c-3.553,-0.404 -7.313,-1.774 -7.313,-7.906c0,-1.747 0.632,-3.163 1.656,-4.281c-0.164,-0.405 -0.714,-2.048 0.156,-4.25c0,0 1.349,-0.414 4.406,1.656c1.276,-0.355 2.639,-0.524 4,-0.531c1.359,0.006 2.722,0.176 4,0.531c3.055,-2.07 4.406,-1.656 4.406,-1.656c0.873,2.203 0.321,3.846 0.156,4.25c1.025,1.119 1.656,2.535 1.656,4.281c0,6.147 -3.748,7.51 -7.313,7.906c0.575,0.494 1.094,1.476 1.094,2.969c0,2.139 -0.031,3.851 -0.031,4.375c0,0.428 0.282,0.938 1.094,0.781c6.352,-2.12 10.938,-8.12 10.938,-15.188c0,-8.838 -7.163,-16 -16,-16l0,0Z" style="fill:#fff;fill-rule:nonzero;"/></svg>