<?xml version="1.0" encoding="utf-8"?>
<!-- Generator: Adobe Illustrator 19.1.0, SVG Export Plug-In . SVG Version: 6.00 Build 0)  -->
<svg version="1.1" id="Layer_1" xmlns="http://www.w3.org/2000/svg" xmlns:xlink="http://www.w3.org/1999/xlink" x="0px" y="0px"
	 viewBox="-429.4 258 70.8 16.9" style="enable-background:new -429.4 258 70.8 16.9;" xml:space="preserve">
<style type="text/css">
	.st0{fill:#FFFFFF;}
</style>
<g>
	<g>
		<path class="st0" d="M-426,274c-0.8,0-1.8-0.1-2.5-0.3l0.1-3.7c0.7,0.3,1.7,0.5,2.8,0.5c1,0,1.6-0.5,1.6-1.2c0-1.7-5-0.6-5-5.4
			c0-2.9,2.1-4.9,6.2-4.9c0.7,0,1.6,0.1,2.4,0.2l-0.1,3.5c-0.7-0.2-1.6-0.4-2.4-0.4c-1.1,0-1.6,0.4-1.6,1.1c0,1.6,5.1,1,5.1,5.3
			C-419.5,271.9-421.8,274-426,274z"/>
		<path class="st0" d="M-411.1,269.6c-0.2,0-0.8,0-1.1-0.1v4.1h-4.1v-14.4c1.3-0.1,3.6-0.1,5.4-0.1c3.9,0,6,1.8,6,5
			C-404.9,267.6-407.5,269.6-411.1,269.6z M-411.1,262.6c-0.3,0-0.8,0-1,0v3.5c0.2,0.1,0.6,0.1,0.9,0.1c1.2,0,2-0.7,2-1.8
			C-409.3,263.5-409.9,262.6-411.1,262.6z"/>
		<path class="st0" d="M-394.4,273.7l-0.7-2.2h-4.8l-0.7,2.2h-4.1l5-14.4h5l5,14.4C-389.9,273.7-394.4,273.7-394.4,273.7z
			 M-397,265.8c-0.2-0.6-0.4-1.3-0.6-2l0,0c-0.1,0.6-0.3,1.3-0.5,1.9l-1,2.8h3L-397,265.8z"/>
		<path class="st0" d="M-382.3,263v10.7h-4.1V263h-3.4v-3.7h10.9v3.7H-382.3z"/>
		<path class="st0" d="M-376.3,273.7v-14.4h4.1v14.4H-376.3z"/>
		<path class="st0" d="M-368.1,273.7v-14.4h9.1v3.3h-4.9v2.1h4.7v3.2h-4.7v2.3h4.9v3.4L-368.1,273.7L-368.1,273.7z"/>
	</g>
</g>
</svg>
