<?xml version="1.0" encoding="utf-8"?>
<!-- Generator: Adobe Illustrator 17.1.0, SVG Export Plug-In . SVG Version: 6.00 Build 0)  -->
<!DOCTYPE svg PUBLIC "-//W3C//DTD SVG 1.1//EN" "http://www.w3.org/Graphics/SVG/1.1/DTD/svg11.dtd">
<svg version="1.1" id="Layer_1" xmlns="http://www.w3.org/2000/svg" xmlns:xlink="http://www.w3.org/1999/xlink" x="0px" y="0px"
     viewBox="168.3 134.8 100 45" enable-background="new 168.3 134.8 100 45" xml:space="preserve">
<g>
    <g>
        <path fill="#FFFFFF" d="M186.3,164.8c-0.8,0-1.8-0.1-2.5-0.3l0.1-3.7c0.7,0.3,1.7,0.5,2.8,0.5c1,0,1.6-0.5,1.6-1.2
            c0-1.7-5-0.6-5-5.4c0-2.9,2.1-4.9,6.2-4.9c0.7,0,1.6,0.1,2.4,0.2l-0.1,3.5c-0.7-0.2-1.6-0.4-2.4-0.4c-1.1,0-1.6,0.4-1.6,1.1
            c0,1.6,5.1,1,5.1,5.3C192.8,162.7,190.5,164.8,186.3,164.8z"/>
        <path fill="#FFFFFF" d="M201.2,160.4c-0.2,0-0.8,0-1.1-0.1v4.1H196v-14.4c1.3-0.1,3.6-0.1,5.4-0.1c3.9,0,6,1.8,6,5
            C207.4,158.4,204.8,160.4,201.2,160.4z M201.2,153.4c-0.3,0-0.8,0-1,0v3.5c0.2,0.1,0.6,0.1,0.9,0.1c1.2,0,2-0.7,2-1.8
            C203,154.3,202.4,153.4,201.2,153.4z"/>
        <path fill="#FFFFFF" d="M217.9,164.5l-0.7-2.2h-4.8l-0.7,2.2h-4.1l5-14.4h5l5,14.4C222.4,164.5,217.9,164.5,217.9,164.5z
             M215.3,156.6c-0.2-0.6-0.4-1.3-0.6-2h0c-0.1,0.6-0.3,1.3-0.5,1.9l-1,2.8h3L215.3,156.6z"/>
        <path fill="#FFFFFF" d="M230,153.8v10.7h-4.1v-10.7h-3.4v-3.7h10.9v3.7H230z"/>
        <path fill="#FFFFFF" d="M236,164.5v-14.4h4.1v14.4C240.1,164.5,236,164.5,236,164.5z"/>
        <path fill="#FFFFFF" d="M244.2,164.5v-14.4h9.1v3.3h-4.9v2.1h4.7v3.2h-4.7v2.3h4.9v3.4L244.2,164.5L244.2,164.5z"/>
    </g>
</g>
</svg>
